# xmcd
#
# Track frame offsets: 
#        150
#        11310
#        21085
#        32615
#        45855
#        58060
#        68080
#        80155
#        93367
#        103677
#        116552
#        128235
#        137310
#        148000
#        163450
#        175242
#        184787
#        194457
#        206340
#        216700
#        227335
#        235815
#
# Disc length: 3278 seconds
#
# Revision: 2
# Processed by: cddbd v1.5.1PL2 Copyright (c) Steve Scherf et al.
# Submitted via: ExactAudioCopy v0.95b4
#
DISCID=300ccc16
DTITLE=Jim Reeves - The best of Jim Reeves
DYEAR=1900
DGENRE=
TTITLE0=He'll Have To Go
TTITLE1=Billy Bayou
TTITLE2=According To My Heart
TTITLE3=Distant Drums
TTITLE4=Welcome To My World
TTITLE5=I Won't Come In While He's There
TTITLE6=Yonder Comes A Sucker
TTITLE7=Four Walls
TTITLE8=Blue Boy
TTITLE9=I Love You Because
TTITLE10=Anna Marie
TTITLE11=Home
TTITLE12=Am I Losing You?
TTITLE13=Blue Side Of Lonesome
TTITLE14=Adios Amigo
TTITLE15=I Won't Forget You
TTITLE16=I'm Gonna Change Everything
TTITLE17=I Missed Me
TTITLE18=Patrners
TTITLE19=Losing Your Love
TTITLE20=Waiting For A Train
TTITLE21=Is It Really Over?
EXTD=
EXTT0=
EXTT1=
EXTT2=
EXTT3=
EXTT4=
EXTT5=
EXTT6=
EXTT7=
EXTT8=
EXTT9=
EXTT10=
EXTT11=
EXTT12=
EXTT13=
EXTT14=
EXTT15=
EXTT16=
EXTT17=
EXTT18=
EXTT19=
EXTT20=
EXTT21=
PLAYORDER=
